<svg width="425" height="302" viewBox="0 0 425 302" fill="none" xmlns="http://www.w3.org/2000/svg">
<rect x="2" y="2" width="129" height="132" rx="4" stroke="white" stroke-width="4"/>
<path d="M18.0021 125.249C16.9496 125.249 16.0462 124.983 15.2919 124.45C14.5419 123.913 13.9645 123.14 13.5597 122.13C13.1591 121.116 12.9588 119.895 12.9588 118.467C12.9631 117.04 13.1655 115.825 13.5661 114.824C13.9709 113.818 14.5483 113.051 15.2983 112.523C16.0526 111.994 16.9538 111.73 18.0021 111.73C19.0504 111.73 19.9517 111.994 20.706 112.523C21.4602 113.051 22.0376 113.818 22.4382 114.824C22.843 115.83 23.0455 117.044 23.0455 118.467C23.0455 119.899 22.843 121.122 22.4382 122.136C22.0376 123.146 21.4602 123.918 20.706 124.45C19.956 124.983 19.0547 125.249 18.0021 125.249ZM18.0021 123.249C18.8203 123.249 19.4659 122.846 19.9389 122.04C20.4162 121.231 20.6548 120.04 20.6548 118.467C20.6548 117.428 20.5462 116.554 20.3288 115.847C20.1115 115.139 19.8047 114.607 19.4084 114.249C19.0121 113.886 18.5433 113.705 18.0021 113.705C17.1882 113.705 16.5447 114.11 16.0717 114.92C15.5987 115.725 15.3601 116.908 15.3558 118.467C15.3516 119.511 15.456 120.389 15.669 121.101C15.8864 121.812 16.1932 122.349 16.5895 122.712C16.9858 123.07 17.4567 123.249 18.0021 123.249ZM25.1692 125V123.287L29.714 118.832C30.1486 118.393 30.5108 118.003 30.8006 117.662C31.0904 117.321 31.3077 116.991 31.4526 116.671C31.5975 116.352 31.6699 116.011 31.6699 115.648C31.6699 115.235 31.5762 114.881 31.3887 114.587C31.2012 114.289 30.9434 114.059 30.6152 113.897C30.2871 113.735 29.9142 113.654 29.4966 113.654C29.0662 113.654 28.6891 113.744 28.3652 113.923C28.0414 114.097 27.79 114.347 27.611 114.67C27.4363 114.994 27.3489 115.38 27.3489 115.827H25.0925C25.0925 114.996 25.2821 114.274 25.6614 113.661C26.0407 113.047 26.5627 112.572 27.2275 112.235C27.8965 111.898 28.6635 111.73 29.5286 111.73C30.4064 111.73 31.1777 111.894 31.8425 112.222C32.5073 112.55 33.0229 113 33.3894 113.571C33.7601 114.142 33.9455 114.794 33.9455 115.527C33.9455 116.017 33.8517 116.499 33.6642 116.972C33.4767 117.445 33.1465 117.969 32.6735 118.544C32.2047 119.119 31.5463 119.816 30.6983 120.634L28.4419 122.929V123.018H34.1436V125H25.1692Z" fill="white"/>
<path d="M15.1467 21H13.3185L16.647 11.5455H18.7614L22.0945 21H20.2663L17.7411 13.4844H17.6673L15.1467 21ZM15.2067 17.293H20.1925V18.6687H15.2067V17.293ZM24.9371 11.5455V21H23.2659V11.5455H24.9371ZM26.6555 21V13.9091H28.3267V21H26.6555ZM27.4957 12.9027C27.2311 12.9027 27.0033 12.815 26.8125 12.6396C26.6217 12.4611 26.5263 12.2472 26.5263 11.9979C26.5263 11.7455 26.6217 11.5316 26.8125 11.3562C27.0033 11.1777 27.2311 11.0884 27.4957 11.0884C27.7635 11.0884 27.9912 11.1777 28.179 11.3562C28.3698 11.5316 28.4652 11.7455 28.4652 11.9979C28.4652 12.2472 28.3698 12.4611 28.179 12.6396C27.9912 12.815 27.7635 12.9027 27.4957 12.9027ZM36.379 13.9091L33.8538 21H32.0072L29.482 13.9091H31.2639L32.8936 19.1765H32.9674L34.6017 13.9091H36.379ZM40.4334 21.1385C39.7225 21.1385 39.1085 20.9908 38.5914 20.6953C38.0775 20.3968 37.682 19.9751 37.405 19.4304C37.128 18.8826 36.9895 18.2378 36.9895 17.4961C36.9895 16.7667 37.128 16.1265 37.405 15.5756C37.6851 15.0217 38.0759 14.5908 38.5776 14.283C39.0792 13.9722 39.6686 13.8168 40.3457 13.8168C40.7827 13.8168 41.1951 13.8875 41.5829 14.0291C41.9738 14.1676 42.3185 14.383 42.617 14.6754C42.9186 14.9678 43.1556 15.3402 43.3279 15.7926C43.5003 16.242 43.5865 16.7775 43.5865 17.3991V17.9116H37.7743V16.7852H41.9846C41.9815 16.4651 41.9122 16.1804 41.7768 15.9311C41.6414 15.6787 41.4521 15.4802 41.209 15.3356C40.9689 15.1909 40.6889 15.1186 40.3688 15.1186C40.0272 15.1186 39.7271 15.2017 39.4686 15.3679C39.21 15.531 39.0085 15.7464 38.8638 16.0142C38.7222 16.2789 38.6499 16.5697 38.6468 16.8867V17.87C38.6468 18.2824 38.7222 18.6364 38.873 18.9318C39.0239 19.2242 39.2347 19.4489 39.5055 19.6058C39.7763 19.7597 40.0933 19.8366 40.4565 19.8366C40.6996 19.8366 40.9197 19.8028 41.1167 19.7351C41.3136 19.6643 41.4844 19.5612 41.6291 19.4258C41.7737 19.2904 41.883 19.1226 41.9569 18.9226L43.5172 19.098C43.4187 19.5104 43.231 19.8705 42.954 20.1783C42.6801 20.483 42.3292 20.7199 41.9015 20.8892C41.4737 21.0554 40.9843 21.1385 40.4334 21.1385Z" fill="white"/>
<path d="M115.84 21V19.7628L119.123 16.5451C119.436 16.2281 119.698 15.9465 119.907 15.7003C120.117 15.4541 120.274 15.2156 120.378 14.9847C120.483 14.7539 120.535 14.5077 120.535 14.2461C120.535 13.9476 120.467 13.6921 120.332 13.4798C120.197 13.2643 120.01 13.0981 119.773 12.9812C119.536 12.8642 119.267 12.8058 118.966 12.8058C118.655 12.8058 118.382 12.8704 118.148 12.9996C117.915 13.1258 117.733 13.3059 117.604 13.5398C117.478 13.7737 117.414 14.0522 117.414 14.3754H115.785C115.785 13.7752 115.922 13.2536 116.196 12.8104C116.47 12.3672 116.847 12.024 117.327 11.7809C117.81 11.5378 118.364 11.4162 118.989 11.4162C119.623 11.4162 120.18 11.5347 120.66 11.7717C121.14 12.0086 121.512 12.3333 121.777 12.7457C122.045 13.1581 122.179 13.629 122.179 14.1584C122.179 14.5123 122.111 14.8601 121.975 15.2017C121.84 15.5433 121.602 15.9219 121.26 16.3374C120.921 16.7528 120.446 17.256 119.833 17.8469L118.204 19.5043V19.5689H122.322V21H115.84Z" fill="white"/>
<path d="M119.201 32.1293C118.515 32.1293 117.905 32.0138 117.373 31.783C116.844 31.5522 116.428 31.2367 116.126 30.8366C115.828 30.4335 115.68 29.9764 115.683 29.4656C115.68 29.0685 115.766 28.7038 115.942 28.3714C116.117 28.0391 116.354 27.7621 116.653 27.5405C116.954 27.3158 117.29 27.1727 117.659 27.1112V27.0465C117.173 26.9388 116.779 26.6911 116.477 26.3033C116.179 25.9124 116.031 25.4615 116.034 24.9506C116.031 24.4644 116.166 24.0304 116.44 23.6488C116.714 23.2672 117.09 22.9671 117.567 22.7486C118.044 22.527 118.589 22.4162 119.201 22.4162C119.807 22.4162 120.347 22.527 120.821 22.7486C121.298 22.9671 121.674 23.2672 121.948 23.6488C122.225 24.0304 122.363 24.4644 122.363 24.9506C122.363 25.4615 122.211 25.9124 121.906 26.3033C121.605 26.6911 121.215 26.9388 120.738 27.0465V27.1112C121.108 27.1727 121.44 27.3158 121.735 27.5405C122.034 27.7621 122.271 28.0391 122.446 28.3714C122.625 28.7038 122.714 29.0685 122.714 29.4656C122.714 29.9764 122.563 30.4335 122.262 30.8366C121.96 31.2367 121.545 31.5522 121.015 31.783C120.489 32.0138 119.884 32.1293 119.201 32.1293ZM119.201 30.8089C119.555 30.8089 119.863 30.7489 120.124 30.6289C120.386 30.5058 120.589 30.3335 120.734 30.1119C120.878 29.8903 120.952 29.6348 120.955 29.3455C120.952 29.0439 120.874 28.7777 120.72 28.5469C120.569 28.313 120.361 28.1299 120.097 27.9975C119.835 27.8652 119.536 27.799 119.201 27.799C118.862 27.799 118.561 27.8652 118.296 27.9975C118.031 28.1299 117.822 28.313 117.668 28.5469C117.518 28.7777 117.444 29.0439 117.447 29.3455C117.444 29.6348 117.514 29.8903 117.659 30.1119C117.804 30.3304 118.007 30.5012 118.268 30.6243C118.533 30.7474 118.844 30.8089 119.201 30.8089ZM119.201 26.5018C119.49 26.5018 119.746 26.4433 119.967 26.3263C120.192 26.2094 120.369 26.0463 120.498 25.837C120.627 25.6277 120.694 25.3861 120.697 25.1122C120.694 24.8414 120.629 24.6044 120.503 24.4013C120.377 24.1951 120.201 24.0366 119.977 23.9258C119.752 23.8119 119.493 23.755 119.201 23.755C118.902 23.755 118.639 23.8119 118.412 23.9258C118.187 24.0366 118.011 24.1951 117.885 24.4013C117.762 24.6044 117.702 24.8414 117.705 25.1122C117.702 25.3861 117.764 25.6277 117.89 25.837C118.019 26.0432 118.196 26.2063 118.421 26.3263C118.649 26.4433 118.909 26.5018 119.201 26.5018Z" fill="white"/>
<path d="M119.201 43.1293C118.515 43.1293 117.905 43.0138 117.373 42.783C116.844 42.5522 116.428 42.2367 116.126 41.8366C115.828 41.4335 115.68 40.9764 115.683 40.4656C115.68 40.0685 115.766 39.7038 115.942 39.3714C116.117 39.0391 116.354 38.7621 116.653 38.5405C116.954 38.3158 117.29 38.1727 117.659 38.1112V38.0465C117.173 37.9388 116.779 37.6911 116.477 37.3033C116.179 36.9124 116.031 36.4615 116.034 35.9506C116.031 35.4644 116.166 35.0304 116.44 34.6488C116.714 34.2672 117.09 33.9671 117.567 33.7486C118.044 33.527 118.589 33.4162 119.201 33.4162C119.807 33.4162 120.347 33.527 120.821 33.7486C121.298 33.9671 121.674 34.2672 121.948 34.6488C122.225 35.0304 122.363 35.4644 122.363 35.9506C122.363 36.4615 122.211 36.9124 121.906 37.3033C121.605 37.6911 121.215 37.9388 120.738 38.0465V38.1112C121.108 38.1727 121.44 38.3158 121.735 38.5405C122.034 38.7621 122.271 39.0391 122.446 39.3714C122.625 39.7038 122.714 40.0685 122.714 40.4656C122.714 40.9764 122.563 41.4335 122.262 41.8366C121.96 42.2367 121.545 42.5522 121.015 42.783C120.489 43.0138 119.884 43.1293 119.201 43.1293ZM119.201 41.8089C119.555 41.8089 119.863 41.7489 120.124 41.6289C120.386 41.5058 120.589 41.3335 120.734 41.1119C120.878 40.8903 120.952 40.6348 120.955 40.3455C120.952 40.0439 120.874 39.7777 120.72 39.5469C120.569 39.313 120.361 39.1299 120.097 38.9975C119.835 38.8652 119.536 38.799 119.201 38.799C118.862 38.799 118.561 38.8652 118.296 38.9975C118.031 39.1299 117.822 39.313 117.668 39.5469C117.518 39.7777 117.444 40.0439 117.447 40.3455C117.444 40.6348 117.514 40.8903 117.659 41.1119C117.804 41.3304 118.007 41.5012 118.268 41.6243C118.533 41.7474 118.844 41.8089 119.201 41.8089ZM119.201 37.5018C119.49 37.5018 119.746 37.4433 119.967 37.3263C120.192 37.2094 120.369 37.0463 120.498 36.837C120.627 36.6277 120.694 36.3861 120.697 36.1122C120.694 35.8414 120.629 35.6044 120.503 35.4013C120.377 35.1951 120.201 35.0366 119.977 34.9258C119.752 34.8119 119.493 34.755 119.201 34.755C118.902 34.755 118.639 34.8119 118.412 34.9258C118.187 35.0366 118.011 35.1951 117.885 35.4013C117.762 35.6044 117.702 35.8414 117.705 36.1122C117.702 36.3861 117.764 36.6277 117.89 36.837C118.019 37.0432 118.196 37.2063 118.421 37.3263C118.649 37.4433 118.909 37.5018 119.201 37.5018Z" fill="white"/>
<path d="M119.201 54.1293C118.515 54.1293 117.905 54.0138 117.373 53.783C116.844 53.5522 116.428 53.2367 116.126 52.8366C115.828 52.4335 115.68 51.9764 115.683 51.4656C115.68 51.0685 115.766 50.7038 115.942 50.3714C116.117 50.0391 116.354 49.7621 116.653 49.5405C116.954 49.3158 117.29 49.1727 117.659 49.1112V49.0465C117.173 48.9388 116.779 48.6911 116.477 48.3033C116.179 47.9124 116.031 47.4615 116.034 46.9506C116.031 46.4644 116.166 46.0304 116.44 45.6488C116.714 45.2672 117.09 44.9671 117.567 44.7486C118.044 44.527 118.589 44.4162 119.201 44.4162C119.807 44.4162 120.347 44.527 120.821 44.7486C121.298 44.9671 121.674 45.2672 121.948 45.6488C122.225 46.0304 122.363 46.4644 122.363 46.9506C122.363 47.4615 122.211 47.9124 121.906 48.3033C121.605 48.6911 121.215 48.9388 120.738 49.0465V49.1112C121.108 49.1727 121.44 49.3158 121.735 49.5405C122.034 49.7621 122.271 50.0391 122.446 50.3714C122.625 50.7038 122.714 51.0685 122.714 51.4656C122.714 51.9764 122.563 52.4335 122.262 52.8366C121.96 53.2367 121.545 53.5522 121.015 53.783C120.489 54.0138 119.884 54.1293 119.201 54.1293ZM119.201 52.8089C119.555 52.8089 119.863 52.7489 120.124 52.6289C120.386 52.5058 120.589 52.3335 120.734 52.1119C120.878 51.8903 120.952 51.6348 120.955 51.3455C120.952 51.0439 120.874 50.7777 120.72 50.5469C120.569 50.313 120.361 50.1299 120.097 49.9975C119.835 49.8652 119.536 49.799 119.201 49.799C118.862 49.799 118.561 49.8652 118.296 49.9975C118.031 50.1299 117.822 50.313 117.668 50.5469C117.518 50.7777 117.444 51.0439 117.447 51.3455C117.444 51.6348 117.514 51.8903 117.659 52.1119C117.804 52.3304 118.007 52.5012 118.268 52.6243C118.533 52.7474 118.844 52.8089 119.201 52.8089ZM119.201 48.5018C119.49 48.5018 119.746 48.4433 119.967 48.3263C120.192 48.2094 120.369 48.0463 120.498 47.837C120.627 47.6277 120.694 47.3861 120.697 47.1122C120.694 46.8414 120.629 46.6044 120.503 46.4013C120.377 46.1951 120.201 46.0366 119.977 45.9258C119.752 45.8119 119.493 45.755 119.201 45.755C118.902 45.755 118.639 45.8119 118.412 45.9258C118.187 46.0366 118.011 46.1951 117.885 46.4013C117.762 46.6044 117.702 46.8414 117.705 47.1122C117.702 47.3861 117.764 47.6277 117.89 47.837C118.019 48.0432 118.196 48.2063 118.421 48.3263C118.649 48.4433 118.909 48.5018 119.201 48.5018Z" fill="white"/>
<path d="M120.686 55.5455V65H118.973V57.212H118.918L116.706 58.6246V57.055L119.056 55.5455H120.686Z" fill="white"/>
<path d="M113.686 33.5455V43H111.973V35.212H111.918L109.706 36.6246V35.055L112.056 33.5455H113.686Z" fill="white"/>
<path d="M143.08 83.88V61.88L145.8 61.68L143 60.28V53.48L149.68 52.92L153.68 54.92V61.72L150.84 61.96L153.56 63.32V85.28L147.08 85.84L143.08 83.88ZM143.4 53.84V59.84L149.28 59.36V53.36L143.4 53.84ZM143.48 62.24V83.44L149.16 82.96V61.76L143.48 62.24ZM179.128 77.72C178.674 80.3333 177.728 82.4 176.288 83.92C174.874 85.4133 172.941 86.2667 170.488 86.48C170.221 86.5067 169.954 86.52 169.688 86.52C169.421 86.5467 169.154 86.56 168.888 86.56C167.234 86.56 165.661 86.32 164.168 85.84C162.701 85.3867 161.394 84.6533 160.248 83.64C159.128 82.6267 158.234 81.3067 157.568 79.68C156.928 78.0533 156.608 76.0933 156.608 73.8C156.608 71.5067 156.994 69.4667 157.768 67.68C158.568 65.8667 159.701 64.4267 161.168 63.36C162.634 62.2667 164.381 61.64 166.408 61.48C166.541 61.4533 166.688 61.44 166.848 61.44C167.008 61.44 167.168 61.44 167.328 61.44C168.581 61.44 169.861 61.6267 171.168 62C172.474 62.3733 173.701 62.92 174.848 63.64C175.994 64.36 176.954 65.2533 177.727 66.32C178.501 67.36 178.954 68.56 179.088 69.92L173.568 72.52L169.568 70.52C169.568 70.4667 169.554 70.4267 169.528 70.4C169.528 70.3467 169.528 70.3067 169.528 70.28C168.781 70.4667 168.248 70.9067 167.928 71.6C167.608 72.2667 167.447 73.4933 167.447 75.28C167.447 75.7867 167.488 76.2267 167.568 76.6C167.648 76.9733 167.754 77.3333 167.888 77.68C168.341 77.44 168.701 77.08 168.968 76.6C169.234 76.12 169.448 75.4267 169.608 74.52L175.128 75.72L179.128 77.72ZM169.928 75.04C169.741 76.1333 169.354 76.9733 168.768 77.56C168.208 78.1467 167.528 78.48 166.728 78.56C166.648 78.56 166.568 78.5733 166.488 78.6C166.408 78.6 166.341 78.6 166.288 78.6C165.141 78.6 164.328 78.16 163.848 77.28C163.368 76.3733 163.128 75.04 163.128 73.28C163.128 71.44 163.434 70.0533 164.048 69.12C164.688 68.1867 165.541 67.6667 166.608 67.56C166.688 67.56 166.768 67.56 166.848 67.56C166.928 67.5333 166.994 67.52 167.048 67.52C168.594 67.52 169.528 68.3333 169.848 69.96L174.608 67.72C174.261 65.9867 173.448 64.5733 172.168 63.48C170.888 62.3867 169.261 61.84 167.288 61.84C167.154 61.84 167.008 61.84 166.848 61.84C166.714 61.84 166.581 61.8533 166.448 61.88C164.474 62.04 162.781 62.6533 161.368 63.72C159.954 64.76 158.874 66.1467 158.128 67.88C157.381 69.6133 157.007 71.5867 157.007 73.8C157.007 76.2267 157.368 78.2 158.088 79.72C158.808 81.24 159.794 82.36 161.048 83.08C162.301 83.7733 163.728 84.12 165.328 84.12C165.514 84.12 165.701 84.12 165.888 84.12C166.074 84.12 166.261 84.1067 166.448 84.08C168.794 83.8933 170.648 83.0933 172.008 81.68C173.368 80.24 174.248 78.36 174.648 76.04L169.928 75.04ZM192.838 83.68L191.798 81.44V85.68L185.278 86.28L181.278 84.28V53.92L187.798 53.32L191.798 55.32V62.04L191.958 61.76L199.478 61.12L203.478 63.12L197.398 72.6L204.158 85.08L196.838 85.68L192.838 83.68ZM198.718 61.6L192.198 62.16L187.398 70.6V53.76L181.678 54.28V83.88L187.398 83.36V79.28L189.518 75.6L193.038 83.28L199.478 82.72L192.958 70.6L198.718 61.6Z" fill="white"/>
<path d="M259.04 84.72C258.187 85.0667 257.307 85.24 256.4 85.24C255.573 85.24 254.813 85.12 254.12 84.88C253.427 84.6667 252.893 84.4533 252.52 84.24C251.347 85.6533 249.627 86.4667 247.36 86.68C247.147 86.7067 246.933 86.72 246.72 86.72C246.507 86.72 246.293 86.72 246.08 86.72C244.427 86.72 242.907 86.4267 241.52 85.84C240.133 85.28 239.013 84.4267 238.16 83.28C237.333 82.1067 236.92 80.6667 236.92 78.96C236.92 77.12 237.427 75.6533 238.44 74.56C239.48 73.4667 241.027 72.4267 243.08 71.44L241.04 70.76L237.04 68.76C237.707 66.44 238.787 64.6933 240.28 63.52C241.8 62.3467 243.52 61.6667 245.44 61.48C245.68 61.4533 245.92 61.44 246.16 61.44C246.4 61.4133 246.627 61.4 246.84 61.4C248.76 61.4 250.507 61.76 252.08 62.48C253.653 63.1733 254.907 64.1733 255.84 65.48C256.773 66.76 257.24 68.2667 257.24 70V77.6L259.68 78.8L259.04 84.72ZM255.2 77.48C254.56 77.7733 254.08 77.92 253.76 77.92C253.147 77.92 252.84 77.52 252.84 76.72V68C252.84 63.8933 250.773 61.84 246.64 61.84C246.453 61.84 246.267 61.84 246.08 61.84C245.893 61.84 245.693 61.8533 245.48 61.88C243.64 62.0667 242 62.7067 240.56 63.8C239.12 64.8933 238.107 66.48 237.52 68.56L242 70.04C242.293 69.1333 242.693 68.4 243.2 67.84C243.733 67.28 244.333 66.9733 245 66.92C245.08 66.92 245.16 66.92 245.24 66.92C245.32 66.8933 245.387 66.88 245.44 66.88C246.053 66.88 246.52 67.0267 246.84 67.32C247.16 67.6133 247.32 68.0133 247.32 68.52C247.32 69.08 247.147 69.5333 246.8 69.88C246.453 70.2 245.973 70.5067 245.36 70.8L243.56 71.64C241.507 72.6 239.947 73.6133 238.88 74.68C237.84 75.72 237.32 77.1467 237.32 78.96C237.32 82.5333 239 84.32 242.36 84.32C242.52 84.32 242.68 84.32 242.84 84.32C243 84.32 243.16 84.3067 243.32 84.28C244.6 84.1733 245.707 83.8667 246.64 83.36C247.573 82.8533 248.28 82.1333 248.76 81.2C248.947 81.76 249.347 82.2 249.96 82.52C250.573 82.84 251.293 83 252.12 83C253 83 253.84 82.8267 254.64 82.48L255.2 77.48ZM244.44 79.64C243.987 79.64 243.613 79.52 243.32 79.28C243.027 79.0133 242.88 78.64 242.88 78.16C242.88 77.0133 243.467 76.16 244.64 75.6L245.44 75.2C245.813 75.0133 246.173 74.84 246.52 74.68C246.893 74.4933 247.173 74.2933 247.36 74.08V76.84C247.227 77.6667 246.907 78.3333 246.4 78.84C245.893 79.32 245.333 79.5867 244.72 79.64H244.44ZM272.583 83.84V71.32C272.263 71.64 272.063 72.0133 271.983 72.44V85.72L265.942 86.32L261.943 84.32V62.36L268.063 61.8L269.343 62.84C269.796 62.4667 270.289 62.1333 270.823 61.84C271.356 61.52 271.996 61.3333 272.743 61.28C272.876 61.28 272.996 61.28 273.103 61.28C273.209 61.2533 273.316 61.24 273.423 61.24C274.623 61.24 275.796 61.4533 276.943 61.88C278.116 62.3067 279.156 62.9067 280.062 63.68C280.996 64.4267 281.729 65.3067 282.263 66.32C282.823 67.3333 283.103 68.4267 283.103 69.6V85.24L276.583 85.8L272.583 83.84ZM278.703 66.96C278.703 65.12 278.196 63.7733 277.183 62.92C276.196 62.0667 274.969 61.64 273.503 61.64C273.396 61.64 273.276 61.64 273.143 61.64C273.036 61.64 272.916 61.6533 272.783 61.68C271.476 61.7867 270.369 62.2933 269.463 63.2C268.556 64.08 267.996 65.1067 267.783 66.28H267.663V62.24L262.343 62.72V83.92L268.063 83.4V70.4C268.196 69.76 268.489 69.1733 268.943 68.64C269.423 68.1067 270.036 67.8 270.783 67.72H270.943C271.503 67.72 271.983 67.92 272.383 68.32C272.783 68.6933 272.983 69.32 272.983 70.2V83.4L278.703 82.88V66.96ZM301.664 84.84C301.238 85.1867 300.731 85.4933 300.144 85.76C299.584 86.0267 298.918 86.1867 298.144 86.24C297.931 86.2667 297.704 86.28 297.464 86.28C297.224 86.28 296.998 86.28 296.784 86.28C294.651 86.28 292.758 85.8267 291.104 84.92C289.478 84.04 288.198 82.6533 287.264 80.76C286.358 78.8667 285.904 76.4133 285.904 73.4C285.904 69.6133 286.624 66.6933 288.064 64.64C289.531 62.5867 291.584 61.44 294.224 61.2C294.331 61.2 294.424 61.2 294.504 61.2C294.611 61.1733 294.718 61.16 294.824 61.16C295.571 61.16 296.211 61.24 296.744 61.4C297.278 61.56 297.758 61.7067 298.184 61.84V52.96L304.704 52.4L308.704 54.4V84.84L302.584 85.32L301.664 84.84ZM298.584 53.32V63.32L298.464 63.36C298.278 62.8267 297.864 62.4 297.224 62.08C296.584 61.7333 295.784 61.56 294.824 61.56C294.744 61.56 294.651 61.5733 294.544 61.6C294.464 61.6 294.371 61.6 294.264 61.6C291.731 61.84 289.771 62.96 288.384 64.96C286.998 66.9333 286.304 69.7467 286.304 73.4C286.304 76.92 286.944 79.56 288.224 81.32C289.531 83.0533 291.278 83.92 293.464 83.92C293.598 83.92 293.718 83.92 293.824 83.92C293.958 83.92 294.078 83.9067 294.184 83.88C295.438 83.7467 296.451 83.36 297.224 82.72C297.998 82.0533 298.544 81.3067 298.864 80.48L298.984 80.52V82.92L304.304 82.48V52.84L298.584 53.32ZM295.224 78.6C294.371 78.6 293.638 78.16 293.024 77.28C292.438 76.3733 292.144 74.9067 292.144 72.88C292.144 70.8533 292.424 69.3867 292.984 68.48C293.544 67.5733 294.398 67.0667 295.544 66.96H295.904C296.598 66.96 297.184 67.1333 297.664 67.48C298.144 67.8267 298.451 68.28 298.584 68.84V74.36C298.584 75.56 298.291 76.5467 297.704 77.32C297.144 78.0933 296.398 78.52 295.464 78.6H295.224ZM298.184 69.8C297.598 69.88 297.171 70.3067 296.904 71.08C296.664 71.8533 296.544 73.12 296.544 74.88C296.544 75.44 296.558 75.9733 296.584 76.48C296.611 76.96 296.691 77.36 296.824 77.68C297.731 76.9333 298.184 75.8267 298.184 74.36V69.8Z" fill="white"/>
<path d="M54.648 72.144V96H42.3V35.856H74.556C79.652 35.856 83.544 37.228 86.232 39.972C89.256 43.052 90.768 47.112 90.768 52.152C90.768 59.432 87.352 64.388 80.52 67.02C84.384 68.532 86.736 70.408 87.576 72.648C88.192 74.272 88.64 79.676 88.92 88.86C88.976 91.156 89.844 92.78 91.524 93.732V96H78.252C77.02 93.704 76.404 90.316 76.404 85.836C76.404 84.716 76.432 83.344 76.488 81.72C76.488 80.6 76.488 79.788 76.488 79.284C76.488 74.524 73.94 72.144 68.844 72.144H54.648ZM54.648 61.812H69.6C72.736 61.812 74.92 61.308 76.152 60.3C77.664 59.012 78.42 56.884 78.42 53.916C78.42 51.06 77.664 49.016 76.152 47.784C74.864 46.72 72.68 46.188 69.6 46.188H54.648V61.812Z" fill="white"/>
<rect x="160" y="168" width="129" height="132" rx="4" stroke="white" stroke-width="4"/>
<path d="M177.892 176.545H179.605V182.722C179.605 183.399 179.445 183.995 179.125 184.509C178.808 185.023 178.362 185.424 177.786 185.714C177.211 186 176.538 186.143 175.769 186.143C174.996 186.143 174.322 186 173.747 185.714C173.171 185.424 172.725 185.023 172.408 184.509C172.091 183.995 171.933 183.399 171.933 182.722V176.545H173.645V182.579C173.645 182.973 173.731 183.324 173.904 183.632C174.079 183.94 174.325 184.181 174.642 184.357C174.959 184.529 175.335 184.615 175.769 184.615C176.203 184.615 176.578 184.529 176.895 184.357C177.215 184.181 177.462 183.94 177.634 183.632C177.806 183.324 177.892 182.973 177.892 182.579V176.545ZM183.064 181.845V186H181.393V178.909H182.99V180.114H183.073C183.236 179.717 183.496 179.402 183.853 179.168C184.214 178.934 184.658 178.817 185.188 178.817C185.677 178.817 186.103 178.921 186.466 179.131C186.833 179.34 187.116 179.643 187.316 180.04C187.519 180.437 187.619 180.919 187.616 181.485V186H185.945V181.744C185.945 181.27 185.822 180.899 185.575 180.631C185.332 180.363 184.995 180.229 184.564 180.229C184.272 180.229 184.012 180.294 183.784 180.423C183.56 180.549 183.383 180.733 183.253 180.973C183.127 181.213 183.064 181.504 183.064 181.845ZM190.838 183.775L190.834 181.757H191.101L193.65 178.909H195.602L192.468 182.399H192.122L190.838 183.775ZM189.315 186V176.545H190.986V186H189.315ZM193.765 186L191.457 182.773L192.583 181.596L195.764 186H193.765ZM198.387 181.845V186H196.716V178.909H198.313V180.114H198.396C198.56 179.717 198.82 179.402 199.177 179.168C199.537 178.934 199.981 178.817 200.511 178.817C201 178.817 201.426 178.921 201.79 179.131C202.156 179.34 202.439 179.643 202.639 180.04C202.842 180.437 202.942 180.919 202.939 181.485V186H201.268V181.744C201.268 181.27 201.145 180.899 200.899 180.631C200.655 180.363 200.318 180.229 199.888 180.229C199.595 180.229 199.335 180.294 199.107 180.423C198.883 180.549 198.706 180.733 198.577 180.973C198.45 181.213 198.387 181.504 198.387 181.845ZM207.731 186.138C207.039 186.138 206.438 185.986 205.931 185.681C205.423 185.377 205.029 184.951 204.749 184.403C204.472 183.855 204.333 183.215 204.333 182.482C204.333 181.75 204.472 181.108 204.749 180.557C205.029 180.006 205.423 179.578 205.931 179.274C206.438 178.969 207.039 178.817 207.731 178.817C208.423 178.817 209.024 178.969 209.531 179.274C210.039 179.578 210.432 180.006 210.709 180.557C210.989 181.108 211.129 181.75 211.129 182.482C211.129 183.215 210.989 183.855 210.709 184.403C210.432 184.951 210.039 185.377 209.531 185.681C209.024 185.986 208.423 186.138 207.731 186.138ZM207.74 184.8C208.116 184.8 208.43 184.697 208.682 184.49C208.934 184.281 209.122 184.001 209.245 183.65C209.371 183.299 209.434 182.908 209.434 182.478C209.434 182.044 209.371 181.651 209.245 181.3C209.122 180.946 208.934 180.665 208.682 180.456C208.43 180.246 208.116 180.142 207.74 180.142C207.356 180.142 207.035 180.246 206.78 180.456C206.528 180.665 206.338 180.946 206.212 181.3C206.089 181.651 206.028 182.044 206.028 182.478C206.028 182.908 206.089 183.299 206.212 183.65C206.338 184.001 206.528 184.281 206.78 184.49C207.035 184.697 207.356 184.8 207.74 184.8ZM213.807 186L211.804 178.909H213.507L214.754 183.895H214.818L216.093 178.909H217.778L219.052 183.867H219.121L220.349 178.909H222.057L220.049 186H218.309L216.979 181.208H216.882L215.552 186H213.807ZM224.895 181.845V186H223.224V178.909H224.821V180.114H224.904C225.067 179.717 225.327 179.402 225.684 179.168C226.045 178.934 226.489 178.817 227.019 178.817C227.508 178.817 227.934 178.921 228.297 179.131C228.664 179.34 228.947 179.643 229.147 180.04C229.35 180.437 229.45 180.919 229.447 181.485V186H227.776V181.744C227.776 181.27 227.653 180.899 227.406 180.631C227.163 180.363 226.826 180.229 226.395 180.229C226.103 180.229 225.843 180.294 225.615 180.423C225.391 180.549 225.214 180.733 225.084 180.973C224.958 181.213 224.895 181.504 224.895 181.845Z" fill="white"/>
<path d="M274.84 187V185.763L278.123 182.545C278.436 182.228 278.698 181.946 278.907 181.7C279.117 181.454 279.274 181.216 279.378 180.985C279.483 180.754 279.535 180.508 279.535 180.246C279.535 179.948 279.467 179.692 279.332 179.48C279.197 179.264 279.01 179.098 278.773 178.981C278.536 178.864 278.267 178.806 277.966 178.806C277.655 178.806 277.382 178.87 277.148 179C276.915 179.126 276.733 179.306 276.604 179.54C276.478 179.774 276.414 180.052 276.414 180.375H274.785C274.785 179.775 274.922 179.254 275.196 178.81C275.47 178.367 275.847 178.024 276.327 177.781C276.81 177.538 277.364 177.416 277.989 177.416C278.623 177.416 279.18 177.535 279.66 177.772C280.14 178.009 280.512 178.333 280.777 178.746C281.045 179.158 281.179 179.629 281.179 180.158C281.179 180.512 281.111 180.86 280.975 181.202C280.84 181.543 280.602 181.922 280.26 182.337C279.921 182.753 279.446 183.256 278.833 183.847L277.204 185.504V185.569H281.322V187H274.84Z" fill="white"/>
<path d="M278.201 198.129C277.515 198.129 276.905 198.014 276.373 197.783C275.844 197.552 275.428 197.237 275.126 196.837C274.828 196.433 274.68 195.976 274.683 195.466C274.68 195.069 274.766 194.704 274.942 194.371C275.117 194.039 275.354 193.762 275.653 193.54C275.954 193.316 276.29 193.173 276.659 193.111V193.047C276.173 192.939 275.779 192.691 275.477 192.303C275.179 191.912 275.031 191.462 275.034 190.951C275.031 190.464 275.166 190.03 275.44 189.649C275.714 189.267 276.09 188.967 276.567 188.749C277.044 188.527 277.589 188.416 278.201 188.416C278.807 188.416 279.347 188.527 279.821 188.749C280.298 188.967 280.674 189.267 280.948 189.649C281.225 190.03 281.363 190.464 281.363 190.951C281.363 191.462 281.211 191.912 280.906 192.303C280.605 192.691 280.215 192.939 279.738 193.047V193.111C280.108 193.173 280.44 193.316 280.735 193.54C281.034 193.762 281.271 194.039 281.446 194.371C281.625 194.704 281.714 195.069 281.714 195.466C281.714 195.976 281.563 196.433 281.262 196.837C280.96 197.237 280.545 197.552 280.015 197.783C279.489 198.014 278.884 198.129 278.201 198.129ZM278.201 196.809C278.555 196.809 278.863 196.749 279.124 196.629C279.386 196.506 279.589 196.333 279.734 196.112C279.878 195.89 279.952 195.635 279.955 195.346C279.952 195.044 279.874 194.778 279.72 194.547C279.569 194.313 279.361 194.13 279.097 193.998C278.835 193.865 278.536 193.799 278.201 193.799C277.862 193.799 277.561 193.865 277.296 193.998C277.031 194.13 276.822 194.313 276.668 194.547C276.518 194.778 276.444 195.044 276.447 195.346C276.444 195.635 276.514 195.89 276.659 196.112C276.804 196.33 277.007 196.501 277.268 196.624C277.533 196.747 277.844 196.809 278.201 196.809ZM278.201 192.502C278.49 192.502 278.746 192.443 278.967 192.326C279.192 192.209 279.369 192.046 279.498 191.837C279.627 191.628 279.694 191.386 279.697 191.112C279.694 190.841 279.629 190.604 279.503 190.401C279.377 190.195 279.201 190.037 278.977 189.926C278.752 189.812 278.493 189.755 278.201 189.755C277.902 189.755 277.639 189.812 277.412 189.926C277.187 190.037 277.011 190.195 276.885 190.401C276.762 190.604 276.702 190.841 276.705 191.112C276.702 191.386 276.764 191.628 276.89 191.837C277.019 192.043 277.196 192.206 277.421 192.326C277.649 192.443 277.909 192.502 278.201 192.502Z" fill="white"/>
<path d="M278.201 209.129C277.515 209.129 276.905 209.014 276.373 208.783C275.844 208.552 275.428 208.237 275.126 207.837C274.828 207.433 274.68 206.976 274.683 206.466C274.68 206.069 274.766 205.704 274.942 205.371C275.117 205.039 275.354 204.762 275.653 204.54C275.954 204.316 276.29 204.173 276.659 204.111V204.047C276.173 203.939 275.779 203.691 275.477 203.303C275.179 202.912 275.031 202.462 275.034 201.951C275.031 201.464 275.166 201.03 275.44 200.649C275.714 200.267 276.09 199.967 276.567 199.749C277.044 199.527 277.589 199.416 278.201 199.416C278.807 199.416 279.347 199.527 279.821 199.749C280.298 199.967 280.674 200.267 280.948 200.649C281.225 201.03 281.363 201.464 281.363 201.951C281.363 202.462 281.211 202.912 280.906 203.303C280.605 203.691 280.215 203.939 279.738 204.047V204.111C280.108 204.173 280.44 204.316 280.735 204.54C281.034 204.762 281.271 205.039 281.446 205.371C281.625 205.704 281.714 206.069 281.714 206.466C281.714 206.976 281.563 207.433 281.262 207.837C280.96 208.237 280.545 208.552 280.015 208.783C279.489 209.014 278.884 209.129 278.201 209.129ZM278.201 207.809C278.555 207.809 278.863 207.749 279.124 207.629C279.386 207.506 279.589 207.333 279.734 207.112C279.878 206.89 279.952 206.635 279.955 206.346C279.952 206.044 279.874 205.778 279.72 205.547C279.569 205.313 279.361 205.13 279.097 204.998C278.835 204.865 278.536 204.799 278.201 204.799C277.862 204.799 277.561 204.865 277.296 204.998C277.031 205.13 276.822 205.313 276.668 205.547C276.518 205.778 276.444 206.044 276.447 206.346C276.444 206.635 276.514 206.89 276.659 207.112C276.804 207.33 277.007 207.501 277.268 207.624C277.533 207.747 277.844 207.809 278.201 207.809ZM278.201 203.502C278.49 203.502 278.746 203.443 278.967 203.326C279.192 203.209 279.369 203.046 279.498 202.837C279.627 202.628 279.694 202.386 279.697 202.112C279.694 201.841 279.629 201.604 279.503 201.401C279.377 201.195 279.201 201.037 278.977 200.926C278.752 200.812 278.493 200.755 278.201 200.755C277.902 200.755 277.639 200.812 277.412 200.926C277.187 201.037 277.011 201.195 276.885 201.401C276.762 201.604 276.702 201.841 276.705 202.112C276.702 202.386 276.764 202.628 276.89 202.837C277.019 203.043 277.196 203.206 277.421 203.326C277.649 203.443 277.909 203.502 278.201 203.502Z" fill="white"/>
<path d="M272.686 210.545V220H270.973V212.212H270.918L268.706 213.625V212.055L271.056 210.545H272.686ZM278.479 220.129C277.815 220.129 277.224 220.015 276.707 219.788C276.193 219.56 275.786 219.243 275.488 218.837C275.189 218.43 275.031 217.961 275.012 217.429H276.748C276.764 217.684 276.848 217.907 277.002 218.098C277.156 218.286 277.361 218.432 277.616 218.537C277.872 218.641 278.158 218.694 278.475 218.694C278.813 218.694 279.113 218.635 279.375 218.518C279.637 218.398 279.841 218.232 279.989 218.02C280.137 217.807 280.209 217.562 280.206 217.286C280.209 216.999 280.135 216.747 279.984 216.528C279.834 216.31 279.615 216.139 279.329 216.016C279.046 215.893 278.704 215.831 278.304 215.831H277.468V214.511H278.304C278.633 214.511 278.921 214.454 279.167 214.34C279.417 214.226 279.612 214.066 279.754 213.86C279.895 213.651 279.964 213.409 279.961 213.135C279.964 212.868 279.904 212.635 279.781 212.438C279.661 212.238 279.49 212.083 279.269 211.972C279.05 211.861 278.793 211.806 278.498 211.806C278.209 211.806 277.941 211.858 277.695 211.963C277.448 212.067 277.25 212.217 277.099 212.411C276.948 212.601 276.868 212.829 276.859 213.094H275.211C275.223 212.564 275.376 212.1 275.668 211.7C275.963 211.296 276.357 210.982 276.85 210.758C277.342 210.53 277.895 210.416 278.507 210.416C279.138 210.416 279.686 210.535 280.151 210.772C280.618 211.006 280.98 211.321 281.235 211.718C281.491 212.115 281.619 212.554 281.619 213.034C281.622 213.566 281.465 214.012 281.148 214.373C280.834 214.733 280.421 214.968 279.911 215.079V215.153C280.575 215.245 281.085 215.491 281.439 215.891C281.796 216.288 281.973 216.782 281.969 217.373C281.969 217.903 281.819 218.377 281.517 218.795C281.219 219.211 280.806 219.537 280.28 219.774C279.757 220.011 279.156 220.129 278.479 220.129Z" fill="white"/>
<path d="M279.686 221.545V231H277.973V223.212H277.918L275.706 224.625V223.055L278.056 221.545H279.686Z" fill="white"/>
<path d="M272.686 199.545V209H270.973V201.212H270.918L268.706 202.625V201.055L271.056 199.545H272.686Z" fill="white"/>
<path d="M177.002 292.249C175.95 292.249 175.046 291.983 174.292 291.45C173.542 290.913 172.964 290.14 172.56 289.13C172.159 288.116 171.959 286.895 171.959 285.467C171.963 284.04 172.165 282.825 172.566 281.824C172.971 280.818 173.548 280.051 174.298 279.523C175.053 278.994 175.954 278.73 177.002 278.73C178.05 278.73 178.952 278.994 179.706 279.523C180.46 280.051 181.038 280.818 181.438 281.824C181.843 282.83 182.045 284.044 182.045 285.467C182.045 286.899 181.843 288.122 181.438 289.136C181.038 290.146 180.46 290.918 179.706 291.45C178.956 291.983 178.055 292.249 177.002 292.249ZM177.002 290.249C177.82 290.249 178.466 289.846 178.939 289.04C179.416 288.231 179.655 287.04 179.655 285.467C179.655 284.428 179.546 283.554 179.329 282.847C179.112 282.139 178.805 281.607 178.408 281.249C178.012 280.886 177.543 280.705 177.002 280.705C176.188 280.705 175.545 281.11 175.072 281.92C174.599 282.725 174.36 283.908 174.356 285.467C174.352 286.511 174.456 287.389 174.669 288.101C174.886 288.812 175.193 289.349 175.589 289.712C175.986 290.07 176.457 290.249 177.002 290.249ZM189.494 278.909V292H187.122V281.217H187.046L183.984 283.173V280.999L187.237 278.909H189.494Z" fill="white"/>
<path d="M185.428 215.782V257H174.55V204.016H190.83L200.45 246.196L209.7 204.016H226.128V257H215.25V215.782L205.852 257H194.974L185.428 215.782ZM253.342 216.966C259.804 216.966 264.762 219.038 268.216 223.182C271.225 226.734 272.73 231.47 272.73 237.39C272.73 244.198 270.781 249.427 266.884 253.078C263.48 256.235 258.966 257.814 253.342 257.814C246.879 257.814 241.921 255.767 238.468 251.672C235.458 248.071 233.954 243.31 233.954 237.39C233.954 230.631 235.902 225.427 239.8 221.776C243.204 218.569 247.718 216.966 253.342 216.966ZM253.342 225.18C250.579 225.18 248.359 226.315 246.682 228.584C245.004 230.804 244.166 233.739 244.166 237.39C244.166 241.337 245.103 244.445 246.978 246.714C248.655 248.638 250.776 249.6 253.342 249.6C256.104 249.6 258.324 248.49 260.002 246.27C261.728 244.001 262.592 241.041 262.592 237.39C262.592 233.493 261.63 230.409 259.706 228.14C258.028 226.167 255.907 225.18 253.342 225.18Z" fill="white"/>
<path d="M315.8 249.44C315.533 249.467 315.253 249.48 314.96 249.48C314.693 249.507 314.413 249.52 314.12 249.52C311.72 249.52 309.6 249.027 307.76 248.04C305.92 247.053 304.48 245.613 303.44 243.72C302.427 241.8 301.92 239.493 301.92 236.8C301.92 234.693 302.267 232.747 302.96 230.96C303.68 229.147 304.76 227.653 306.2 226.48C307.667 225.307 309.507 224.627 311.72 224.44C311.933 224.413 312.147 224.4 312.36 224.4C312.573 224.4 312.787 224.4 313 224.4C314.707 224.4 316.307 224.707 317.8 225.32C319.32 225.933 320.653 226.8 321.8 227.92C322.973 229.04 323.893 230.387 324.56 231.96C325.227 233.507 325.56 235.227 325.56 237.12C325.56 239.227 325.2 241.187 324.48 243C323.787 244.787 322.72 246.253 321.28 247.4C319.84 248.547 318.013 249.227 315.8 249.44ZM311.76 247.04C313.893 246.853 315.653 246.2 317.04 245.08C318.427 243.96 319.453 242.533 320.12 240.8C320.813 239.04 321.16 237.147 321.16 235.12C321.16 233.173 320.853 231.427 320.24 229.88C319.653 228.333 318.733 227.107 317.48 226.2C316.253 225.267 314.68 224.8 312.76 224.8C312.6 224.8 312.44 224.8 312.28 224.8C312.12 224.8 311.947 224.813 311.76 224.84C309.627 225.027 307.853 225.693 306.44 226.84C305.053 227.96 304.013 229.387 303.32 231.12C302.653 232.853 302.32 234.747 302.32 236.8C302.32 238.72 302.627 240.467 303.24 242.04C303.853 243.587 304.787 244.813 306.04 245.72C307.293 246.627 308.867 247.08 310.76 247.08C310.92 247.08 311.08 247.08 311.24 247.08C311.4 247.08 311.573 247.067 311.76 247.04ZM311.4 241.52C310.413 241.52 309.64 241.093 309.08 240.24C308.547 239.387 308.28 238.067 308.28 236.28C308.28 234.413 308.587 233.013 309.2 232.08C309.813 231.12 310.667 230.587 311.76 230.48H312.12C313.107 230.48 313.867 230.907 314.4 231.76C314.933 232.587 315.2 233.88 315.2 235.64C315.2 237.507 314.893 238.933 314.28 239.92C313.693 240.88 312.853 241.413 311.76 241.52H311.4ZM312.92 240.76C314.173 240.067 314.8 238.36 314.8 235.64C314.8 234.707 314.72 233.907 314.56 233.24C313.867 233.347 313.373 233.827 313.08 234.68C312.813 235.507 312.68 236.707 312.68 238.28C312.68 239.24 312.76 240.067 312.92 240.76ZM328.349 247.12V225.16L334.789 224.56L335.789 225.04C336.589 224.24 337.522 223.8 338.589 223.72H339.109C339.562 223.72 339.989 223.76 340.389 223.84C340.789 223.893 341.175 223.96 341.549 224.04L345.549 226.04L346.309 232.92C345.082 232.44 344.042 232.2 343.189 232.2C343.055 232.2 342.909 232.2 342.749 232.2C342.615 232.2 342.482 232.213 342.349 232.24C341.709 232.293 341.122 232.533 340.589 232.96C340.055 233.387 339.629 233.933 339.309 234.6C339.015 235.24 338.869 235.907 338.869 236.6V248.52L332.349 249.12L328.349 247.12ZM334.469 234.6C334.469 233.827 334.642 233.093 334.989 232.4C335.335 231.68 335.802 231.093 336.389 230.64C336.975 230.16 337.615 229.893 338.309 229.84C338.469 229.813 338.629 229.8 338.789 229.8C338.949 229.8 339.095 229.8 339.229 229.8C339.709 229.8 340.149 229.853 340.549 229.96C340.975 230.04 341.402 230.16 341.829 230.32L341.149 224.4C340.909 224.347 340.615 224.293 340.269 224.24C339.922 224.16 339.535 224.12 339.109 224.12H338.629C337.695 224.2 336.829 224.627 336.029 225.4C335.255 226.147 334.749 227.107 334.509 228.28H334.389V225L328.749 225.52V246.72L334.469 246.2V234.6ZM363.753 248.88C363.14 248.907 362.54 248.933 361.953 248.96C361.393 249.013 360.847 249.04 360.313 249.04C356.527 249.04 353.727 248.347 351.913 246.96C350.1 245.573 349.193 243.293 349.193 240.12V232.48L346.633 231.2V225.16L349.193 224.96V218.44L355.673 217.84L359.673 219.84V224.44L362.993 226.08V232.12L359.673 232.4V240.44L361.033 240.32L365.033 242.32L363.753 248.88ZM360.513 240.8C359.927 240.853 359.407 240.907 358.953 240.96C358.527 240.987 358.127 241 357.753 241C356.633 241 355.94 240.8 355.673 240.4C355.407 240 355.273 239.307 355.273 238.32V230.04L358.593 229.76V224.52L355.273 224.8V218.28L349.593 218.8V225.32L347.033 225.52V230.76L349.593 230.56V240.12C349.593 241.72 349.793 243 350.193 243.96C350.593 244.92 351.273 245.613 352.233 246.04C353.22 246.467 354.58 246.68 356.313 246.68C356.767 246.68 357.247 246.667 357.753 246.64C358.26 246.613 358.807 246.573 359.393 246.52L360.513 240.8ZM365.892 250.96C367.066 249.947 368.146 248.893 369.132 247.8C370.119 246.733 370.919 245.747 371.532 244.84L364.892 225.48L372.012 224.84L376.012 226.84L377.252 231C377.492 229.933 377.692 228.92 377.852 227.96C378.039 227 378.226 225.933 378.412 224.76L385.012 224.16L389.012 226.16C388.292 230.507 387.372 234.467 386.252 238.04C385.132 241.613 383.679 244.92 381.892 247.96C380.106 251.027 377.866 253.96 375.172 256.76L371.172 254.76L365.892 250.96ZM371.092 254.2C373.706 251.507 375.879 248.68 377.612 245.72C379.346 242.733 380.759 239.507 381.852 236.04C382.946 232.573 383.826 228.773 384.492 224.64L378.732 225.16C378.386 227.587 377.959 229.893 377.452 232.08C376.946 234.24 376.332 236.307 375.612 238.28L371.692 225.28L365.452 225.84L371.972 244.92C371.359 245.853 370.546 246.867 369.532 247.96C368.546 249.08 367.546 250.067 366.532 250.92L371.092 254.2Z" fill="white"/>
</svg>
