<svg width="46" height="44" viewBox="0 0 46 44" fill="none" xmlns="http://www.w3.org/2000/svg">
<path d="M23.0576 0.00016052C17.5875 -0.0200902 12.2894 1.87634 8.11683 5.34824C3.94421 8.82015 1.1709 13.6396 0.295854 18.9395C-0.579189 24.2395 0.501481 29.6719 3.34344 34.2595C6.18539 38.8471 10.6021 42.2887 15.7988 43.9651C16.9474 44.1454 17.3149 43.4465 17.3149 42.8378V39.0275C10.952 40.3802 9.59667 36.0739 9.59667 36.0739C9.16768 34.6737 8.2377 33.4726 6.97798 32.692C4.88762 31.2942 7.13878 31.3393 7.13878 31.3393C7.85983 31.4308 8.55048 31.6812 9.15908 32.0716C9.76768 32.462 10.2785 32.9824 10.6533 33.5939C11.2914 34.7075 12.3516 35.5288 13.6034 35.8792C14.8552 36.2296 16.1973 36.0808 17.3379 35.4652C17.4425 34.3222 17.9551 33.2523 18.7851 32.444C13.8693 31.948 8.40218 30.009 8.40218 21.419C8.33573 19.1676 9.15883 16.9783 10.6993 15.309C9.99989 13.3687 10.0821 11.2396 10.929 9.3568C10.929 9.3568 12.8585 8.74805 17.246 11.6114C21.0077 10.6189 24.9698 10.6189 28.7315 11.6114C33.1189 8.70296 35.0485 9.3568 35.0485 9.3568C35.8954 11.2396 35.9776 13.3687 35.2782 15.309C36.8186 16.9783 37.6417 19.1676 37.5753 21.419C37.5753 30.0316 32.2001 31.9255 27.0776 32.4891C27.6293 33.0334 28.0561 33.6871 28.3294 34.4065C28.6028 35.1258 28.7164 35.8942 28.6626 36.6601V42.8378C28.6626 43.4465 29.0301 44.168 30.2016 43.9651C35.3889 42.2917 39.7992 38.8593 42.6418 34.2835C45.4843 29.7077 46.5732 24.2877 45.7133 18.9953C44.8533 13.7029 42.1007 8.88425 37.9489 5.40332C33.7972 1.92238 28.5179 0.00684641 23.0576 0.00016052Z" fill="white"/>
</svg>
