<svg width="40" height="40" viewBox="0 0 40 40" fill="none" xmlns="http://www.w3.org/2000/svg">
<path d="M0.3125 5.41064V34.5913C0.3125 37.3456 2.48 39.5131 5.23438 39.5131H34.415C35.7631 39.5131 37.0513 38.8681 37.8725 38.0488C38.7519 37.1694 39.3369 36.0556 39.3369 34.5913V5.41064C39.3369 2.65627 37.1694 0.48877 34.415 0.48877H5.23438C3.77 0.48877 2.65625 1.07564 1.77688 1.95314C0.955625 2.77439 0.3125 4.06252 0.3125 5.41064ZM5.58688 9.2769C5.58688 7.4019 7.11125 5.76127 8.98625 5.76127C10.9194 5.76127 12.5019 7.4019 12.5019 9.2769C12.5019 11.21 10.9194 12.7344 8.98625 12.7344C7.11125 12.7344 5.58688 11.21 5.58688 9.2769ZM15.02 33.3594V15.4888C15.02 15.0781 15.4306 14.7275 15.7231 14.7275H20.7031C21.4063 14.7275 21.4063 15.5488 21.4063 16.0756C22.8125 14.6694 24.6294 14.3169 26.5044 14.3169C31.0756 14.3169 34.0044 16.4844 34.0044 21.29V33.3613C34.0044 33.7719 33.6519 34.1225 33.3013 34.1225H28.145C27.7344 34.1225 27.4419 33.7119 27.4419 33.3613V22.4619C27.4419 20.645 26.915 19.6494 24.8638 19.6494C22.2856 19.6494 21.6406 21.3481 21.6406 23.6338V33.3613C21.6406 33.7719 21.23 34.1225 20.8194 34.1225H15.7213C15.4288 34.1225 15.0181 33.7119 15.0181 33.3613L15.02 33.3594ZM5.70313 33.3594V15.4888C5.70313 15.0781 6.11375 14.7275 6.40625 14.7275H11.5044C11.9731 14.7275 12.2656 15.02 12.2656 15.4888V33.3594C12.2656 33.77 11.9131 34.1206 11.5044 34.1206H6.40625C6.05375 34.1206 5.70313 33.71 5.70313 33.3594Z" fill="white"/>
</svg>
